<mxfile host="app.diagrams.net" modified="2022-06-14T03:43:25.847Z" agent="5.0 (Windows NT 10.0; Win64; x64) AppleWebKit/537.36 (KHTML, like Gecko) Chrome/102.0.5005.63 Safari/537.36 Edg/102.0.1245.33" etag="DUKbBgwRxPsvYw7OcXjJ" version="19.0.3" type="github">
  <diagram id="npF-58Th2BGEYhvz-0i7" name="Page-1">
    <mxGraphModel dx="981" dy="532" grid="1" gridSize="10" guides="1" tooltips="1" connect="1" arrows="1" fold="1" page="1" pageScale="1" pageWidth="827" pageHeight="1169" math="0" shadow="0">
      <root>
        <mxCell id="0" />
        <mxCell id="1" parent="0" />
        <mxCell id="1Y4oN1xmid4urN9Fm5Kw-1" value="被灰度的跨服(需要跨服同步), 新开老关19703" style="rounded=1;whiteSpace=wrap;html=1;" vertex="1" parent="1">
          <mxGeometry x="50" y="95" width="190" height="70" as="geometry" />
        </mxCell>
        <mxCell id="1Y4oN1xmid4urN9Fm5Kw-3" value="唯一TeamStub跨服" style="rounded=1;whiteSpace=wrap;html=1;" vertex="1" parent="1">
          <mxGeometry x="700" y="240" width="120" height="60" as="geometry" />
        </mxCell>
        <mxCell id="1Y4oN1xmid4urN9Fm5Kw-4" value="被灰度的本服, 新开老关" style="rounded=1;whiteSpace=wrap;html=1;" vertex="1" parent="1">
          <mxGeometry x="40" y="300" width="185" height="60" as="geometry" />
        </mxCell>
        <mxCell id="1Y4oN1xmid4urN9Fm5Kw-6" value="&lt;span style=&quot;&quot;&gt;没被灰度的跨服(需要跨服同步), 新关老开19704&lt;/span&gt;" style="rounded=0;whiteSpace=wrap;html=1;" vertex="1" parent="1">
          <mxGeometry x="294" y="100" width="186" height="60" as="geometry" />
        </mxCell>
        <mxCell id="1Y4oN1xmid4urN9Fm5Kw-7" value="没被灰度的本服" style="rounded=0;whiteSpace=wrap;html=1;" vertex="1" parent="1">
          <mxGeometry x="460" y="330" width="120" height="60" as="geometry" />
        </mxCell>
        <mxCell id="1Y4oN1xmid4urN9Fm5Kw-8" value="" style="endArrow=classic;startArrow=classic;html=1;rounded=0;entryX=0.417;entryY=0;entryDx=0;entryDy=0;entryPerimeter=0;" edge="1" parent="1" target="1Y4oN1xmid4urN9Fm5Kw-3">
          <mxGeometry width="50" height="50" relative="1" as="geometry">
            <mxPoint x="140" y="90" as="sourcePoint" />
            <mxPoint x="660" y="80" as="targetPoint" />
            <Array as="points">
              <mxPoint x="140" y="50" />
              <mxPoint x="730" y="50" />
            </Array>
          </mxGeometry>
        </mxCell>
        <mxCell id="1Y4oN1xmid4urN9Fm5Kw-15" value="ts" style="shape=cylinder3;whiteSpace=wrap;html=1;boundedLbl=1;backgroundOutline=1;size=15;" vertex="1" parent="1">
          <mxGeometry x="526" y="315.13" width="40" height="50" as="geometry" />
        </mxCell>
        <mxCell id="1Y4oN1xmid4urN9Fm5Kw-16" value="ts" style="shape=cylinder3;whiteSpace=wrap;html=1;boundedLbl=1;backgroundOutline=1;size=15;" vertex="1" parent="1">
          <mxGeometry x="770" y="210" width="40" height="50" as="geometry" />
        </mxCell>
        <mxCell id="1Y4oN1xmid4urN9Fm5Kw-19" value="ts" style="shape=cylinder3;whiteSpace=wrap;html=1;boundedLbl=1;backgroundOutline=1;size=15;" vertex="1" parent="1">
          <mxGeometry x="380" y="60" width="40" height="50" as="geometry" />
        </mxCell>
        <mxCell id="1Y4oN1xmid4urN9Fm5Kw-20" value="ts" style="shape=cylinder3;whiteSpace=wrap;html=1;boundedLbl=1;backgroundOutline=1;size=15;" vertex="1" parent="1">
          <mxGeometry x="170" y="270" width="40" height="50" as="geometry" />
        </mxCell>
        <mxCell id="1Y4oN1xmid4urN9Fm5Kw-21" value="" style="curved=1;endArrow=classic;html=1;rounded=0;" edge="1" parent="1" target="1Y4oN1xmid4urN9Fm5Kw-1">
          <mxGeometry width="50" height="50" relative="1" as="geometry">
            <mxPoint x="50" y="295" as="sourcePoint" />
            <mxPoint x="30" y="170" as="targetPoint" />
            <Array as="points">
              <mxPoint x="100" y="260" />
              <mxPoint x="50" y="210" />
            </Array>
          </mxGeometry>
        </mxCell>
        <mxCell id="1Y4oN1xmid4urN9Fm5Kw-31" value="体验和原来一样" style="edgeLabel;html=1;align=center;verticalAlign=middle;resizable=0;points=[];" vertex="1" connectable="0" parent="1Y4oN1xmid4urN9Fm5Kw-21">
          <mxGeometry x="0.0934" y="-6" relative="1" as="geometry">
            <mxPoint as="offset" />
          </mxGeometry>
        </mxCell>
        <mxCell id="1Y4oN1xmid4urN9Fm5Kw-24" value="&lt;span style=&quot;&quot;&gt;没被灰度的跨服(不需要跨服同步), 新关老关&lt;/span&gt;" style="rounded=0;whiteSpace=wrap;html=1;" vertex="1" parent="1">
          <mxGeometry x="500" y="100" width="186" height="60" as="geometry" />
        </mxCell>
        <mxCell id="1Y4oN1xmid4urN9Fm5Kw-25" value="ts" style="shape=cylinder3;whiteSpace=wrap;html=1;boundedLbl=1;backgroundOutline=1;size=15;" vertex="1" parent="1">
          <mxGeometry x="610" y="60" width="40" height="50" as="geometry" />
        </mxCell>
        <mxCell id="1Y4oN1xmid4urN9Fm5Kw-26" value="" style="curved=1;endArrow=classic;html=1;rounded=0;entryX=0.038;entryY=0.984;entryDx=0;entryDy=0;entryPerimeter=0;" edge="1" parent="1" target="1Y4oN1xmid4urN9Fm5Kw-6">
          <mxGeometry width="50" height="50" relative="1" as="geometry">
            <mxPoint x="190" y="270" as="sourcePoint" />
            <mxPoint x="240" y="220" as="targetPoint" />
            <Array as="points">
              <mxPoint x="240" y="270" />
              <mxPoint x="190" y="220" />
            </Array>
          </mxGeometry>
        </mxCell>
        <mxCell id="1Y4oN1xmid4urN9Fm5Kw-28" value="" style="curved=1;endArrow=classic;html=1;rounded=0;entryX=0.922;entryY=0.994;entryDx=0;entryDy=0;entryPerimeter=0;exitX=0.25;exitY=0;exitDx=0;exitDy=0;" edge="1" parent="1" source="1Y4oN1xmid4urN9Fm5Kw-7" target="1Y4oN1xmid4urN9Fm5Kw-1">
          <mxGeometry width="50" height="50" relative="1" as="geometry">
            <mxPoint x="389" y="280" as="sourcePoint" />
            <mxPoint x="439" y="230" as="targetPoint" />
            <Array as="points">
              <mxPoint x="439" y="280" />
              <mxPoint x="389" y="230" />
            </Array>
          </mxGeometry>
        </mxCell>
        <mxCell id="1Y4oN1xmid4urN9Fm5Kw-29" value="原来可以跨服同步, 现在不能" style="edgeLabel;html=1;align=center;verticalAlign=middle;resizable=0;points=[];" vertex="1" connectable="0" parent="1Y4oN1xmid4urN9Fm5Kw-28">
          <mxGeometry x="-0.4512" y="2" relative="1" as="geometry">
            <mxPoint x="39" y="15" as="offset" />
          </mxGeometry>
        </mxCell>
        <mxCell id="1Y4oN1xmid4urN9Fm5Kw-30" value="原来可以跨服同步, 现在不能" style="edgeLabel;html=1;align=center;verticalAlign=middle;resizable=0;points=[];" vertex="1" connectable="0" parent="1">
          <mxGeometry x="310.00424500382144" y="200.0026721285676" as="geometry">
            <mxPoint x="-103" y="24" as="offset" />
          </mxGeometry>
        </mxCell>
        <mxCell id="1Y4oN1xmid4urN9Fm5Kw-32" value="体验和原来一样" style="edgeLabel;html=1;align=center;verticalAlign=middle;resizable=0;points=[];" vertex="1" connectable="0" parent="1">
          <mxGeometry x="630.0037560861323" y="209.99847471189355" as="geometry" />
        </mxCell>
        <mxCell id="1Y4oN1xmid4urN9Fm5Kw-33" value="体验和原来一样" style="edgeLabel;html=1;align=center;verticalAlign=middle;resizable=0;points=[];" vertex="1" connectable="0" parent="1">
          <mxGeometry x="320.0037560861323" y="269.99847471189355" as="geometry" />
        </mxCell>
        <mxCell id="1Y4oN1xmid4urN9Fm5Kw-34" value="" style="curved=1;endArrow=classic;html=1;rounded=0;entryX=0.902;entryY=1.053;entryDx=0;entryDy=0;entryPerimeter=0;exitX=0.95;exitY=0.008;exitDx=0;exitDy=0;exitPerimeter=0;" edge="1" parent="1" source="1Y4oN1xmid4urN9Fm5Kw-7" target="1Y4oN1xmid4urN9Fm5Kw-6">
          <mxGeometry width="50" height="50" relative="1" as="geometry">
            <mxPoint x="570" y="300" as="sourcePoint" />
            <mxPoint x="590" y="210" as="targetPoint" />
            <Array as="points">
              <mxPoint x="590" y="260" />
              <mxPoint x="540" y="210" />
            </Array>
          </mxGeometry>
        </mxCell>
        <mxCell id="1Y4oN1xmid4urN9Fm5Kw-35" value="" style="curved=1;endArrow=classic;html=1;rounded=0;entryX=0.806;entryY=1;entryDx=0;entryDy=0;entryPerimeter=0;exitX=1;exitY=0;exitDx=0;exitDy=0;" edge="1" parent="1" source="1Y4oN1xmid4urN9Fm5Kw-7" target="1Y4oN1xmid4urN9Fm5Kw-24">
          <mxGeometry width="50" height="50" relative="1" as="geometry">
            <mxPoint x="580" y="340" as="sourcePoint" />
            <mxPoint x="650" y="240" as="targetPoint" />
            <Array as="points">
              <mxPoint x="650" y="290" />
              <mxPoint x="630" y="240" />
            </Array>
          </mxGeometry>
        </mxCell>
        <mxCell id="1Y4oN1xmid4urN9Fm5Kw-36" value="体验和原来一样" style="edgeLabel;html=1;align=center;verticalAlign=middle;resizable=0;points=[];" vertex="1" connectable="0" parent="1">
          <mxGeometry x="540.0037560861323" y="254.86847471189355" as="geometry">
            <mxPoint x="17" y="3" as="offset" />
          </mxGeometry>
        </mxCell>
        <mxCell id="1Y4oN1xmid4urN9Fm5Kw-37" value="" style="curved=1;endArrow=classic;html=1;rounded=0;entryX=0.825;entryY=1.053;entryDx=0;entryDy=0;entryPerimeter=0;exitX=0.25;exitY=1;exitDx=0;exitDy=0;" edge="1" parent="1" source="1Y4oN1xmid4urN9Fm5Kw-4" target="1Y4oN1xmid4urN9Fm5Kw-3">
          <mxGeometry width="50" height="50" relative="1" as="geometry">
            <mxPoint x="190" y="470" as="sourcePoint" />
            <mxPoint x="760" y="430" as="targetPoint" />
            <Array as="points">
              <mxPoint x="240" y="470" />
              <mxPoint x="280" y="480" />
              <mxPoint x="340" y="460" />
              <mxPoint x="190" y="420" />
              <mxPoint x="720" y="470" />
            </Array>
          </mxGeometry>
        </mxCell>
        <mxCell id="1Y4oN1xmid4urN9Fm5Kw-38" value="" style="curved=1;endArrow=classic;html=1;rounded=0;entryX=0.25;entryY=1;entryDx=0;entryDy=0;exitX=1;exitY=0.25;exitDx=0;exitDy=0;" edge="1" parent="1" source="1Y4oN1xmid4urN9Fm5Kw-4" target="1Y4oN1xmid4urN9Fm5Kw-24">
          <mxGeometry width="50" height="50" relative="1" as="geometry">
            <mxPoint x="310" y="260" as="sourcePoint" />
            <mxPoint x="360" y="210" as="targetPoint" />
            <Array as="points">
              <mxPoint x="360" y="260" />
              <mxPoint x="310" y="210" />
            </Array>
          </mxGeometry>
        </mxCell>
      </root>
    </mxGraphModel>
  </diagram>
</mxfile>
